<svg xmlns="http://www.w3.org/2000/svg" viewBox="0 0 117.77 54"><defs><style>.cls-1{fill:#ffc500;}.cls-2{fill:#3e4646;}.cls-3{fill:#fff;}</style></defs><title>Artboard 6</title><g id="Layer_2" data-name="Layer 2"><path class="cls-1" d="M20.48,50.8c-28.67,0-15.17-47.91,0-47.91S49.13,50.8,20.48,50.8Z"/><path class="cls-2" d="M25.75,10c.18.05-1.64,5.89-1.67,7.19s1.35,2,1.73,3.6c.09,1.25-.66,2.18-.51,3.07.21,1.24,2.15.84,2.33,2-.13,1.41-1.06,2.21-1.3,3.51.44.14.8.13.89.26s-3.87,5.78-3.46,7c-.78-.92.29-2.16.77-3.08a14.64,14.64,0,0,0,1.41-3.08c-.07-.31-.83.06-.77-.38.26-1.53,1.34-3.09,1.17-3.93.08-.4-1.7-1.77-3.1-2.58-1-.56-1.33-1.14-4.78-1-.26,0-.93-.21-.86-.72.84,1.28,2.38-.33,3.85,0,1.2.28,2.54,1,2.95.91a2,2,0,0,0,.51-1.8c-.2-.88-1.38-1.46-1.67-2.69C22.9,16.89,24,14,24,14A36.1,36.1,0,0,1,25.75,10Z"/><path class="cls-3" d="M50,38.17V16.58H65.32v4H54.63v4.53H65.1V29.2H54.63v4.92H65.32v4.05Z"/><path class="cls-3" d="M69.46,27.39c0-6.84,5.18-11.18,11.53-11.18A10.1,10.1,0,0,1,89.89,21L86.11,23.1A6.2,6.2,0,0,0,81,20.28c-4,0-6.79,3-6.79,7.09A6.72,6.72,0,0,0,81,34.45a7.29,7.29,0,0,0,4.57-1.65V30.21h-5.7v-4H90.15v8.29A12,12,0,0,1,81,38.56C74.63,38.56,69.46,34.18,69.46,27.39Z"/><path class="cls-3" d="M94.36,27.39c0-6.84,5.18-11.18,11.53-11.18a10.1,10.1,0,0,1,8.9,4.81L111,23.1a6.24,6.24,0,0,0-5.12-2.82c-4,0-6.79,3-6.79,7.09a6.72,6.72,0,0,0,6.79,7.08,7.21,7.21,0,0,0,4.56-1.65V30.21h-5.69v-4h10.3v8.29a12,12,0,0,1-9.17,4.05C99.54,38.56,94.36,34.18,94.36,27.39Z"/></g></svg>